<?xml version="1.0" encoding="utf-8"?>
<!-- Generator: Adobe Illustrator 16.0.0, SVG Export Plug-In . SVG Version: 6.00 Build 0)  -->
<!DOCTYPE svg PUBLIC "-//W3C//DTD SVG 1.1//EN" "http://www.w3.org/Graphics/SVG/1.1/DTD/svg11.dtd">
<svg version="1.1" id="Layer_1" xmlns="http://www.w3.org/2000/svg" xmlns:xlink="http://www.w3.org/1999/xlink" x="0px" y="0px"
	 width="397.8px" height="397.8px" viewBox="111.18 117.54 397.8 397.8" enable-background="new 111.18 117.54 397.8 397.8"
	 xml:space="preserve">
<g>
	<path fill="none" d="M375.36,233.82V202.2H332.52c-22.439,0-40.8,19.38-40.8,42.84v40.8H249.9v29.58h41.82v118.32h35.7V315.42
		h47.94v-29.58h-47.94v-34.68c0-9.18,7.14-17.34,15.3-17.34H375.36z"/>
	<path d="M432.48,117.54h-244.8c-41.82,0-76.5,34.68-76.5,76.5v244.8c0,41.82,34.68,76.5,76.5,76.5h244.8
		c41.819,0,76.5-34.68,76.5-76.5v-244.8C508.98,152.22,475.32,117.54,432.48,117.54z M327.42,251.16v34.68h47.94v29.58h-47.94
		v118.32h-35.7V315.42H249.9v-29.58h41.82v-40.8c0-23.46,18.36-42.84,40.8-42.84h42.841v31.62H342.72
		C334.56,233.82,327.42,241.98,327.42,251.16z"/>
</g>
</svg>
