<?xml version="1.0" encoding="utf-8"?>
<!-- Generator: Adobe Illustrator 16.0.0, SVG Export Plug-In . SVG Version: 6.00 Build 0)  -->
<!DOCTYPE svg PUBLIC "-//W3C//DTD SVG 1.1//EN" "http://www.w3.org/Graphics/SVG/1.1/DTD/svg11.dtd">
<svg version="1.1" id="Layer_1" xmlns="http://www.w3.org/2000/svg" xmlns:xlink="http://www.w3.org/1999/xlink" x="0px" y="0px"
	 width="612px" height="611.988px" viewBox="0 13.512 612 611.988" enable-background="new 0 13.512 612 611.988"
	 xml:space="preserve">
<g>
	<g>
		<g>
			<path d="M447.642,311.709c0,78.214-63.416,141.642-141.642,141.642c-78.22,0-141.623-63.421-141.623-141.641
				c0-17.706,3.391-34.56,9.309-50.19H0v210.987C0,557.018,68.507,625.5,153,625.5h306.006C543.505,625.5,612,557.018,612,472.506
				V261.519H438.309C444.238,277.144,447.642,294.004,447.642,311.709z"/>
			<circle cx="306" cy="311.703" r="85.001"/>
			<path d="M459.006,13.512H161.06v159.542h-33.458V15.795c-11.64,1.934-22.871,5.074-33.458,9.486v147.779H60.692V44.7
				C23.868,72.638,0,116.738,0,166.519v44.798h206.109c25.618-25.478,60.912-41.237,99.891-41.237s74.267,15.759,99.878,41.237H612
				v-44.798C612,82.02,543.505,13.512,459.006,13.512z M527.36,158.208c0,9.48-7.711,17.197-17.203,17.197h-51.579
				c-9.511,0-17.204-7.693-17.204-17.197v-51.592c0-9.492,7.693-17.203,17.204-17.203h51.579c9.492,0,17.203,7.693,17.203,17.203
				V158.208z"/>
		</g>
	</g>
</g>
</svg>
