<?xml version="1.0" encoding="utf-8"?>
<!-- Generator: Adobe Illustrator 19.1.0, SVG Export Plug-In . SVG Version: 6.00 Build 0)  -->
<svg version="1.1" id="Layer_1" xmlns="http://www.w3.org/2000/svg" xmlns:xlink="http://www.w3.org/1999/xlink" x="0px" y="0px"
	 viewBox="-350 250.5 90 112.5" style="enable-background:new -350 250.5 90 112.5;" xml:space="preserve">
<path d="M-262,306.5L-262,306.5c0-7-1.5-14.6-4-20.5c-0.4-1-1.5-1.5-2.6-1.4c-11.5,1.8-22.8,6.9-29.4,13.5c-0.5,0.5-1.1,0.7-1.7,0.7
	c-2.3,0-7.7,0-9.9,0c-0.7,0-1.3-0.3-1.7-0.7c-6.7-6.6-17.9-11.6-29.5-13.5c-1.1-0.1-2.2,0.4-2.6,1.4c-2.5,5.9-4,13.5-4,20.5h0.4v0.2
	v-0.2h-0.4c0,8,1.5,14.8,4,20.8c0.4,1,1.5,1.6,2.6,1.5c11.6-1.8,22.8-6.8,29.4-13.4c0.5-0.5,1.1-0.7,1.7-0.7c2.3,0,7.8,0,10,0
	c0.7,0,1.3,0.3,1.7,0.7c6.6,6.6,17.8,11.6,29.4,13.4c1.1,0.2,2.1-0.5,2.6-1.5C-263.5,321.3-262,314.5-262,306.5L-262,306.5v0.2
	V306.5z"/>
</svg>
