<?xml version="1.0" encoding="utf-8"?>
<!-- Generator: Adobe Illustrator 16.0.0, SVG Export Plug-In . SVG Version: 6.00 Build 0)  -->
<!DOCTYPE svg PUBLIC "-//W3C//DTD SVG 1.1//EN" "http://www.w3.org/Graphics/SVG/1.1/DTD/svg11.dtd">
<svg version="1.1" id="Layer_1" xmlns="http://www.w3.org/2000/svg" xmlns:xlink="http://www.w3.org/1999/xlink" x="0px" y="0px"
	 width="612px" height="612px" viewBox="17 189.875 612 612" enable-background="new 17 189.875 612 612" xml:space="preserve">
<path d="M323,189.875c-168.988,0-306,136.999-306,306s136.999,306,306,306c169.014,0,306-136.999,306-306
	S492.014,189.875,323,189.875z M479.315,389.004c0.446-0.51,0.841-1.186,1.466-1.313c0,0-0.102,0.204-1.046,1.963
	c0.472,0.791,0.944,1.568,1.39,2.372c16.729,3.238,29.135,7.421,29.135,10.136c0,2.143-7.587,6.299-18.857,10.762
	c4.756,11.5,8.657,23.944,11.398,37.141c8.491,40.8,4.207,79.547-9.295,106.819c-22.835,75.353-92.77,130.254-175.619,130.254
	c-77.838,0-144.202-48.552-170.875-116.942c30.46,22.529,68.008,35.967,108.796,35.967c22.746,0,44.434-4.334,64.54-11.934
	c-21.866,1.543-44.382-1.339-66.236-9.639c-73.631-27.897-87.337-115.961-87.337-115.961c-5.482-35.216,2.422-37.613,17.557-5.355
	c0,0,17.939,38.199,70.609,58.152c1.39,0.536,2.818,0.88,4.233,1.326c-0.892-0.421-1.823-0.79-2.715-1.275
	c-69.462-37.025-71.821-126.161-71.821-126.161c-0.944-35.611,7.204-36.988,18.105-3.085c0,0,12.916,40.188,62.603,66.683
	c24.952,13.323,51.867,19.048,78.247,18.245c-12.305-68.48,10.939-129.948,53.447-138.822c19.125-3.978,38.951,3.379,56.432,18.819
	c5.049-0.638,10.659-0.612,16.601,0.268c22.07,3.314,40.149,8.746,40.149,12.049c0,2.958-14.42,9.741-33.201,15.886
	C477.823,386.633,478.562,387.768,479.315,389.004z"/>
</svg>
